<?xml version="1.0" encoding="utf-8"?>
<!-- Generator: Adobe Illustrator 25.3.1, SVG Export Plug-In . SVG Version: 6.00 Build 0)  -->
<svg version="1.1"
	 id="svg17" xmlns:cc="http://creativecommons.org/ns#" xmlns:dc="http://purl.org/dc/elements/1.1/" xmlns:rdf="http://www.w3.org/1999/02/22-rdf-syntax-ns#" xmlns:svg="http://www.w3.org/2000/svg"
	 xmlns="http://www.w3.org/2000/svg" xmlns:xlink="http://www.w3.org/1999/xlink" x="0px" y="0px" viewBox="0 0 378.4 298.6"
	 style="enable-background:new 0 0 378.4 298.6;" xml:space="preserve">
<style type="text/css">
	.st0{fill:#010101;}
	.st1{fill:#FFFFFF;}
</style>
<g>
	<rect y="0" class="st0" width="378.4" height="298.6"/>
	<polygon class="st1" points="101.7,56.7 88.7,56.7 88.7,226.4 88.7,239.4 101.7,239.4 144.3,239.4 144.3,226.4 101.7,226.4 	"/>
	<rect x="49.7" y="101.7" class="st1" width="13" height="137.8"/>
	<rect x="49.7" y="47.9" class="st1" width="13" height="27.8"/>
	<rect x="161.5" y="56.7" class="st1" width="13" height="182.1"/>
	<polygon class="st1" points="342.4,56.7 312.8,56.7 299.8,56.7 270.3,56.7 270.3,69.7 299.8,69.7 299.8,239.4 312.8,239.4 
		312.8,69.7 342.4,69.7 	"/>
	<polygon class="st1" points="202.9,56.7 202.9,69.7 202.9,136.6 202.9,149.6 202.9,239.4 215.9,239.4 215.9,149.6 257.9,149.6 
		257.9,136.6 215.9,136.6 215.9,69.7 260.8,69.7 260.8,56.7 215.9,56.7 	"/>
</g>
</svg>
